<?xml version="1.0" encoding="UTF-8" standalone="no"?>
<svg
   width="77.488663mm"
   height="22mm"
   viewBox="0 0 292.87053 83.149608"
   version="1.1"
   id="svg4"
   sodipodi:docname="analog.svg"
   inkscape:version="1.2.2 (b0a8486541, 2022-12-01)"
   xmlns:inkscape="http://www.inkscape.org/namespaces/inkscape"
   xmlns:sodipodi="http://sodipodi.sourceforge.net/DTD/sodipodi-0.dtd"
   xmlns="http://www.w3.org/2000/svg"
   xmlns:svg="http://www.w3.org/2000/svg">
  <defs
     id="defs8" />
  <sodipodi:namedview
     id="namedview6"
     pagecolor="#ffffff"
     bordercolor="#666666"
     borderopacity="1.0"
     inkscape:showpageshadow="2"
     inkscape:pageopacity="0.0"
     inkscape:pagecheckerboard="0"
     inkscape:deskcolor="#d1d1d1"
     showgrid="false"
     inkscape:zoom="0.49690912"
     inkscape:cx="-394.43832"
     inkscape:cy="370.28904"
     inkscape:window-width="1440"
     inkscape:window-height="765"
     inkscape:window-x="0"
     inkscape:window-y="0"
     inkscape:window-maximized="1"
     inkscape:current-layer="svg4"
     inkscape:document-units="mm" />
  <path
     d="M 0,83.04567 V 0.86672654 H 81.763364 V 83.04567 Z M 16.83771,13.685566 V 72.652022 L 68.078394,42.510443 Z m 92.43418,68.493966 H 95.171169 V 45.559246 h 14.204651 c 10.49759,0 16.83771,8.314919 16.83771,18.916439 0,10.601521 -5.61257,17.703847 -16.907,17.703847 z m 12.54166,-44.935204 -2.80628,-8.141518 h -13.4771 l -2.45983,8.141518 H 95.725497 L 108.02465,0.52027161 h 7.44878 l 13.8582,36.72405639 z m -13.13064,14.551107 h -5.7858 v 24.702237 h 6.23619 c 8.24563,0 9.45822,-6.99839 9.38893,-12.368441 0,-4.192105 -2.00944,-12.368441 -9.80467,-12.368441 z m 7.79524,-30.037469 -4.6425,-13.477097 -4.12281,13.407806 -0.27717,2.286602 h 9.11177 c 0,-1.212592 0.10394,-1.489756 -0.10394,-2.182666 z m 12.36844,60.456212 V 45.559246 h 26.98884 v 6.132253 h -19.60935 v 7.795235 h 17.35739 v 6.651935 h -17.25345 v 9.804675 h 20.16367 v 6.236188 H 128.88123 Z M 154.24174,37.278973 138.13158,12.472974 v 24.805999 h -7.34484 V 0.52027161 h 7.51807 L 153.82599,24.979997 V 0.52027161 h 7.34484 V 37.244328 h -6.92909 z m 23.03925,44.865914 H 170.2826 L 158.19132,47.534039 v -1.940147 h 7.34485 l 8.24562,26.815611 8.0724,-26.711675 h 7.17162 v 1.940148 z m 11.64088,-44.865914 -2.80628,-8.141517 h -13.4771 l -2.45983,8.141517 h -7.34484 L 175.13297,0.52027161 h 7.44878 l 13.8582,36.72405639 h -7.51808 z m -5.26611,-15.34778 -4.6425,-13.8581969 -4.64249,13.8581969 v 2.009439 h 9.45822 c 0,-1.212592 0,-1.38582 -0.17323,-2.009439 z m 7.62201,60.179048 V 45.663183 h 7.79523 v 36.447058 z m 6.75587,-44.865913 V 0.52027161 h 7.27555 V 31.008312 h 16.38732 v 6.236016 z m 20.40619,45.835987 c -20.05974,0.450392 -23.55893,-38.28327 0.10394,-38.040751 13.13064,0 15.41724,10.947976 15.93693,12.610959 h -7.27556 c -1.1433,-2.286602 -4.12281,-6.651934 -7.79523,-6.929098 -12.95742,-0.866138 -12.95742,26.538447 0,26.538447 6.23619,0 7.72594,-6.236188 8.0724,-6.929098 h 7.10232 c 0,0 -0.86613,12.541668 -16.11015,12.714896 z m 20.16368,-45.212368 c -23.59358,0 -22.72744,-38.04058455 0.24252,-37.86735716508 C 261.01914,0.17381738 261.64276,37.867947 238.56887,37.867947 Z m -0.27716,-6.132079 C 251.90738,31.839804 251.90738,6.4100124 238.60351,6.2367849 225.36893,6.1328485 224.91854,31.631931 238.32635,31.735868 Z m -2.45983,50.47831 V 45.559246 h 26.01876 v 6.651935 h -19.02037 v 7.518072 h 16.83771 v 6.582644 h -16.73378 v 9.631447 h 19.81722 v 6.236188 h -26.8849 z m 49.40447,-45.835987 v -3.499022 c -0.79685,0.69291 -4.29604,5.162005 -10.87868,4.988778 -22.41564,-0.519683 -22.51958,-37.31302989 1.03936,-37.76342061 5.68186,0 10.42829,3.60313751 12.2645,6.13225851 2.18267,2.875576 2.3559,5.3354061 2.45983,5.9590251 h -6.23618 C 282.534,9.9092072 280.31668,6.0635575 275.15451,6.0635575 261.46954,5.89033 260.6034,31.735868 275.05057,32.013032 c 6.40942,0.173227 9.63145,-6.478708 9.63145,-6.582644 V 23.49024 h -8.76531 v -5.68186 h 15.07079 v 18.569811 h -5.7858 z m -6.82516,46.771415 c -15.52118,0 -15.34796,-11.918049 -15.34796,-11.918049 h 6.99839 c 0,0 -0.51968,5.785797 7.27556,6.305479 1.94015,0.103937 8.24562,-0.69291 8.24562,-5.092887 0,-5.092888 -6.40941,-4.815724 -10.42829,-5.959025 -4.01888,-1.039365 -11.64088,-2.806285 -11.64088,-9.908611 0,-6.236189 5.09288,-11.571595 14.89756,-11.571595 13.13064,0.103937 13.06135,10.255066 13.13064,10.878685 h -6.75587 c -0.45039,-1.489756 -0.86614,-5.092887 -6.75587,-5.266115 -2.87558,0 -7.27556,0.970074 -7.27556,4.365332 0,4.296042 4.91966,4.91966 10.08184,5.681861 7.79524,1.489756 12.26451,3.84565 11.98734,11.051913 -0.17322,6.305479 -5.78579,11.398367 -14.44717,11.398367 z"
     fill="currentColor"
     id="path2"
     style="fill:#0067b9;fill-opacity:1;stroke-width:3.46455" />
</svg>
