<?xml version="1.0" encoding="UTF-8" standalone="no"?>
<svg
   id="a"
   data-name="logo"
   width="95.557922mm"
   height="19.315838mm"
   viewBox="0 0 270.8742 54.754113"
   version="1.1"
   sodipodi:docname="onmcu.svg"
   inkscape:version="1.2.2 (b0a8486541, 2022-12-01)"
   xmlns:inkscape="http://www.inkscape.org/namespaces/inkscape"
   xmlns:sodipodi="http://sodipodi.sourceforge.net/DTD/sodipodi-0.dtd"
   xmlns="http://www.w3.org/2000/svg"
   xmlns:svg="http://www.w3.org/2000/svg">
  <defs
     id="defs9" />
  <sodipodi:namedview
     id="namedview7"
     pagecolor="#ffffff"
     bordercolor="#666666"
     borderopacity="1.0"
     inkscape:showpageshadow="2"
     inkscape:pageopacity="0.0"
     inkscape:pagecheckerboard="0"
     inkscape:deskcolor="#d1d1d1"
     inkscape:document-units="mm"
     showgrid="false"
     inkscape:zoom="2.8548678"
     inkscape:cx="264.81086"
     inkscape:cy="127.15125"
     inkscape:window-width="2560"
     inkscape:window-height="1403"
     inkscape:window-x="0"
     inkscape:window-y="0"
     inkscape:window-maximized="1"
     inkscape:current-layer="text238" />
  <g
     aria-label="OnMCU"
     id="text238"
     style="font-size:73.1961px;line-height:1.25;font-family:'Inter 18pt';-inkscape-font-specification:'Inter 18pt';stroke-width:1.8299">
    <path
       d="m 25.374867,54.754113 q -7.183797,0 -12.937983,-3.180885 Q 6.682699,48.356602 3.3231125,42.245014 -7.3377788e-4,36.133426 -7.3377788e-4,27.412797 q 0,-8.75637 3.32384627788,-14.867958 Q 6.682699,6.3975106 12.436884,3.2166255 18.19107,5.5879354e-8 25.374867,5.5879354e-8 q 7.148056,0 12.866501,3.216625444120646 5.754186,3.1808851 9.113772,9.3282135 3.359587,6.111588 3.359587,14.867958 0,8.720629 -3.359587,14.832217 -3.359586,6.111588 -9.113772,9.328214 -5.718445,3.180885 -12.866501,3.180885 z m 0,-11.115228 q 3.85995,0 6.647692,-1.858495 2.787742,-1.894235 4.288834,-5.504003 1.501092,-3.645509 1.501092,-8.86359 0,-5.253822 -1.501092,-8.899331 -1.501092,-3.645508 -4.288834,-5.504003 -2.787742,-1.894235 -6.647692,-1.894235 -3.859951,0 -6.647693,1.894235 -2.787742,1.858495 -4.324574,5.504003 -1.501092,3.645509 -1.501092,8.899331 0,5.218081 1.501092,8.86359 1.536832,3.609768 4.324574,5.504003 2.787742,1.858495 6.647693,1.858495 z"
       style="font-weight:800;-inkscape-font-specification:'Inter 18pt Ultra-Bold';fill:#ff6b35"
       id="path390" />
    <path
       d="M 69.835778,31.701631 V 54.003567 H 57.39816 V 14.546295 h 11.830033 l 0.178702,10.07876 h -0.822027 q 1.536832,-4.824939 4.681977,-7.719901 3.180885,-2.930704 8.506187,-2.930704 4.181613,0 7.219537,1.858495 3.073665,1.822755 4.753458,5.218081 1.679793,3.359587 1.679793,7.898603 V 54.003567 H 82.988202 V 31.379968 q 0,-3.359587 -1.715534,-5.218081 -1.679793,-1.894235 -4.717717,-1.894235 -2.001456,0 -3.538288,0.893507 -1.501092,0.857767 -2.358859,2.50182 -0.822026,1.644053 -0.822026,4.038652 z"
       style="font-weight:800;-inkscape-font-specification:'Inter 18pt Ultra-Bold';fill:#ff6b35"
       id="path392" />
    <path
       d="M 103.3959,54.003567 V 0.75054599 h 19.47846 L 129.70075,21.51565 q 0.57184,1.894235 1.32239,4.932159 0.75055,3.037924 1.50109,6.504731 0.75055,3.466808 1.39387,6.683433 0.67907,3.180885 1.07221,5.432523 h -2.60904 q 0.42888,-2.251638 1.03647,-5.432523 0.64332,-3.216625 1.39387,-6.647692 0.78629,-3.466808 1.50109,-6.504732 0.75055,-3.037924 1.32239,-4.967899 L 144.35427,0.75054599 H 163.9042 V 54.003567 H 151.2164 V 31.022565 q 0,-1.787014 0.0715,-4.539016 0.0715,-2.787742 0.14296,-6.040107 0.10722,-3.252366 0.1787,-6.540472 0.10722,-3.323846 0.10722,-6.1830689 h 0.92925 q -0.67906,3.1094049 -1.53683,6.4689909 -0.82203,3.359587 -1.67979,6.540472 -0.85777,3.180885 -1.64406,5.861406 -0.75054,2.680521 -1.28665,4.431795 l -7.57694,22.981002 H 128.4141 l -7.7199,-22.981002 q -0.53611,-1.751274 -1.32239,-4.396055 -0.78629,-2.680521 -1.64406,-5.861406 -0.85776,-3.180885 -1.71553,-6.540472 -0.85777,-3.359586 -1.60831,-6.5047309 h 1.10795 q 0,2.7877419 0.0715,6.1115879 0.10722,3.288106 0.1787,6.576212 0.10722,3.252366 0.1787,6.040108 0.0715,2.787742 0.0715,4.574756 v 22.981002 z"
       style="font-weight:800;-inkscape-font-specification:'Inter 18pt Ultra-Bold';fill:#ff6b35"
       id="path394" />
    <path
       d="m 195.85601,54.754113 q -7.21954,0 -12.93798,-3.180885 -5.71845,-3.216626 -9.04229,-9.328214 -3.28811,-6.111588 -3.28811,-14.832217 0,-8.79211 3.32385,-14.903698 3.35958,-6.1115884 9.07803,-9.2924735 Q 188.70795,5.5879354e-8 195.85601,5.5879354e-8 q 4.75346,0 8.82785,1.358130744120646 4.07439,1.3223904 7.1838,3.8599505 3.1094,2.53756 5.07512,6.1830687 1.96571,3.645509 2.53756,8.291746 h -12.79502 q -0.32167,-2.001456 -1.21517,-3.574029 -0.89351,-1.608312 -2.25164,-2.716261 -1.35813,-1.107949 -3.14515,-1.679793 -1.78701,-0.607585 -3.93143,-0.607585 -3.93143,0 -6.79065,1.929975 -2.82348,1.929975 -4.36032,5.575484 -1.50109,3.645509 -1.50109,8.79211 0,5.253821 1.53683,8.89933 1.53684,3.609768 4.36032,5.468263 2.82348,1.858495 6.71917,1.858495 2.14442,0 3.89569,-0.571845 1.78702,-0.607584 3.18089,-1.715533 1.39387,-1.107949 2.28738,-2.680521 0.8935,-1.608313 1.25091,-3.574029 h 12.79502 q -0.39315,3.78847 -2.18016,7.291018 -1.75127,3.502548 -4.7892,6.32603 -3.00218,2.787742 -7.21954,4.431795 -4.18161,1.608313 -9.47117,1.608313 z"
       style="font-weight:800;-inkscape-font-specification:'Inter 18pt Ultra-Bold';fill:#ff6b35"
       id="path396" />
    <path
       d="m 248.42997,54.718372 q -6.75492,0 -11.7943,-2.430339 -5.03938,-2.430339 -7.86286,-6.826394 -2.78774,-4.396054 -2.78774,-10.328941 V 0.75054599 h 12.58058 V 34.096229 q 0,2.787742 1.25091,4.9679 1.25091,2.180157 3.46681,3.431067 2.21589,1.25091 5.1466,1.25091 2.96644,0 5.18234,-1.25091 2.2159,-1.25091 3.43107,-3.395327 1.25091,-2.180157 1.25091,-5.00364 V 0.75054599 h 12.58057 V 35.132698 q 0,5.932887 -2.82348,10.328941 -2.78774,4.396055 -7.82712,6.826394 -5.03938,2.430339 -11.79429,2.430339 z"
       style="font-weight:800;-inkscape-font-specification:'Inter 18pt Ultra-Bold';fill:#ff6b35"
       id="path398" />
  </g>
</svg>
