<?xml version="1.0" encoding="UTF-8" standalone="no"?>
<svg
   width="100%"
   height="100%"
   viewBox="0 0 1920 1080"
   version="1.1"
   xml:space="preserve"
   style="fill-rule:evenodd;clip-rule:evenodd;stroke-linejoin:round;stroke-miterlimit:2;"
   id="svg18"
   sodipodi:docname="logo_munich_embedded_white_text.svg"
   inkscape:version="1.4.2 (ebf0e940d0, 2025-05-08)"
   xmlns:inkscape="http://www.inkscape.org/namespaces/inkscape"
   xmlns:sodipodi="http://sodipodi.sourceforge.net/DTD/sodipodi-0.dtd"
   xmlns="http://www.w3.org/2000/svg"
   xmlns:svg="http://www.w3.org/2000/svg"
   xmlns:serif="http://www.serif.com/"><defs
   id="defs18" /><sodipodi:namedview
   id="namedview18"
   pagecolor="#ffffff"
   bordercolor="#000000"
   borderopacity="0.25"
   inkscape:showpageshadow="2"
   inkscape:pageopacity="0.0"
   inkscape:pagecheckerboard="0"
   inkscape:deskcolor="#d1d1d1"
   inkscape:zoom="0.6984375"
   inkscape:cx="960"
   inkscape:cy="540.49217"
   inkscape:window-width="2560"
   inkscape:window-height="1368"
   inkscape:window-x="0"
   inkscape:window-y="0"
   inkscape:window-maximized="1"
   inkscape:current-layer="Gross" />
    <g
   id="Gross"
   transform="matrix(0.477827,0,0,0.477827,-204.471,-181.792)">
        <g
   transform="matrix(4.65124,0,0,4.73338,-534.065,209.865)"
   id="g15"
   style="fill:#ffffff">
            <g
   transform="matrix(138.994,0,0,138.994,236.629,324.404)"
   id="g1"
   style="fill:#ffffff">
                <path
   d="M0.066,-0L0.066,-0.728L0.295,-0.728L0.412,-0.394C0.417,-0.378 0.423,-0.358 0.429,-0.333C0.436,-0.308 0.442,-0.282 0.449,-0.253C0.455,-0.224 0.461,-0.196 0.467,-0.169C0.473,-0.143 0.477,-0.119 0.481,-0.099L0.452,-0.099C0.456,-0.119 0.461,-0.142 0.466,-0.169C0.472,-0.195 0.478,-0.223 0.484,-0.252C0.491,-0.281 0.497,-0.307 0.504,-0.333C0.51,-0.358 0.516,-0.378 0.521,-0.394L0.637,-0.728L0.866,-0.728L0.866,-0L0.716,-0L0.716,-0.343C0.716,-0.359 0.717,-0.379 0.717,-0.402C0.718,-0.426 0.718,-0.452 0.719,-0.479C0.72,-0.507 0.721,-0.534 0.721,-0.562C0.722,-0.59 0.722,-0.616 0.722,-0.641L0.732,-0.641C0.726,-0.614 0.719,-0.586 0.711,-0.557C0.704,-0.529 0.696,-0.501 0.689,-0.474C0.681,-0.447 0.674,-0.422 0.667,-0.399C0.66,-0.377 0.654,-0.358 0.649,-0.343L0.529,-0L0.403,-0L0.281,-0.343C0.276,-0.358 0.27,-0.376 0.263,-0.399C0.257,-0.421 0.249,-0.446 0.241,-0.473C0.234,-0.499 0.226,-0.527 0.218,-0.556C0.211,-0.585 0.203,-0.613 0.196,-0.641L0.208,-0.641C0.208,-0.618 0.209,-0.592 0.209,-0.564C0.21,-0.537 0.212,-0.428 0.213,-0.404C0.214,-0.38 0.214,-0.359 0.214,-0.343L0.214,-0L0.066,-0Z"
   style="fill:#ffffff;fill-rule:nonzero"
   id="path1" />
            </g>
            <g
   transform="matrix(138.994,0,0,138.994,366.122,324.404)"
   id="g2"
   style="fill:#ffffff">
                <path
   d="M0.25,0.007C0.213,0.007 0.18,-0.001 0.151,-0.018C0.123,-0.034 0.101,-0.058 0.086,-0.089C0.07,-0.119 0.062,-0.156 0.062,-0.199L0.062,-0.546L0.209,-0.546L0.209,-0.224C0.209,-0.19 0.218,-0.164 0.235,-0.144C0.253,-0.125 0.277,-0.116 0.308,-0.116C0.329,-0.116 0.347,-0.12 0.363,-0.129C0.379,-0.138 0.391,-0.151 0.4,-0.168C0.409,-0.185 0.414,-0.206 0.414,-0.23L0.414,-0.546L0.56,-0.546L0.56,-0L0.422,-0L0.42,-0.136L0.428,-0.136C0.414,-0.09 0.392,-0.055 0.363,-0.03C0.333,-0.006 0.296,0.007 0.25,0.007Z"
   style="fill:#ffffff;fill-rule:nonzero"
   id="path2" />
            </g>
            <g
   transform="matrix(138.994,0,0,138.994,452.654,324.404)"
   id="g3"
   style="fill:#ffffff">
                <path
   d="M0.209,-0.316L0.209,-0L0.062,-0L0.062,-0.546L0.201,-0.546L0.203,-0.41L0.194,-0.41C0.209,-0.455 0.23,-0.49 0.259,-0.515C0.289,-0.54 0.326,-0.553 0.372,-0.553C0.41,-0.553 0.443,-0.545 0.471,-0.528C0.499,-0.512 0.521,-0.488 0.537,-0.457C0.552,-0.427 0.56,-0.39 0.56,-0.347L0.56,-0L0.414,-0L0.414,-0.322C0.414,-0.356 0.405,-0.382 0.387,-0.401C0.37,-0.421 0.346,-0.43 0.315,-0.43C0.294,-0.43 0.276,-0.426 0.26,-0.417C0.244,-0.408 0.231,-0.395 0.222,-0.378C0.213,-0.361 0.209,-0.34 0.209,-0.316Z"
   style="fill:#ffffff;fill-rule:nonzero"
   id="path3" />
            </g>
            <g
   transform="matrix(138.994,0,0,138.994,539.186,324.404)"
   id="g4"
   style="fill:#ffffff">
                <path
   d="M0.062,-0L0.062,-0.546L0.209,-0.546L0.209,-0L0.062,-0ZM0.136,-0.617C0.114,-0.617 0.095,-0.624 0.079,-0.639C0.063,-0.654 0.055,-0.672 0.055,-0.692C0.055,-0.713 0.063,-0.731 0.079,-0.746C0.095,-0.76 0.114,-0.768 0.136,-0.768C0.158,-0.768 0.177,-0.76 0.193,-0.746C0.208,-0.731 0.216,-0.713 0.216,-0.692C0.216,-0.672 0.208,-0.654 0.193,-0.639C0.177,-0.624 0.158,-0.617 0.136,-0.617Z"
   style="fill:#ffffff;fill-rule:nonzero"
   id="path4" />
            </g>
            <g
   transform="matrix(138.994,0,0,138.994,576.852,324.404)"
   id="g5"
   style="fill:#ffffff">
                <path
   d="M0.306,0.011C0.252,0.011 0.204,-0.001 0.164,-0.025C0.125,-0.048 0.094,-0.081 0.072,-0.123C0.051,-0.165 0.04,-0.215 0.04,-0.271C0.04,-0.327 0.051,-0.376 0.072,-0.419C0.094,-0.461 0.125,-0.494 0.164,-0.517C0.204,-0.541 0.252,-0.553 0.306,-0.553C0.339,-0.553 0.369,-0.549 0.396,-0.54C0.423,-0.532 0.448,-0.52 0.469,-0.504C0.49,-0.488 0.507,-0.469 0.521,-0.447C0.535,-0.424 0.544,-0.399 0.549,-0.371L0.413,-0.346C0.41,-0.36 0.405,-0.373 0.399,-0.384C0.393,-0.395 0.386,-0.405 0.377,-0.413C0.368,-0.421 0.358,-0.427 0.346,-0.431C0.335,-0.435 0.322,-0.437 0.308,-0.437C0.282,-0.437 0.26,-0.43 0.242,-0.416C0.225,-0.402 0.211,-0.383 0.202,-0.358C0.193,-0.333 0.189,-0.304 0.189,-0.271C0.189,-0.239 0.193,-0.21 0.202,-0.185C0.211,-0.16 0.225,-0.14 0.242,-0.126C0.26,-0.112 0.282,-0.105 0.308,-0.105C0.322,-0.105 0.335,-0.107 0.347,-0.111C0.359,-0.115 0.369,-0.122 0.378,-0.13C0.387,-0.138 0.395,-0.148 0.401,-0.16C0.407,-0.172 0.411,-0.185 0.414,-0.2L0.55,-0.175C0.545,-0.146 0.536,-0.12 0.522,-0.097C0.508,-0.075 0.491,-0.055 0.47,-0.039C0.449,-0.023 0.424,-0.011 0.397,-0.002C0.369,0.006 0.339,0.011 0.306,0.011Z"
   style="fill:#ffffff;fill-rule:nonzero"
   id="path5" />
            </g>
            <g
   transform="matrix(138.994,0,0,138.994,658.634,324.404)"
   id="g6"
   style="fill:#ffffff">
                <path
   d="M0.209,-0.316L0.209,-0L0.062,-0L0.062,-0.728L0.206,-0.728L0.206,-0.41L0.194,-0.41C0.209,-0.455 0.23,-0.49 0.259,-0.515C0.289,-0.54 0.326,-0.553 0.372,-0.553C0.41,-0.553 0.443,-0.545 0.471,-0.528C0.5,-0.512 0.521,-0.488 0.537,-0.457C0.553,-0.427 0.56,-0.39 0.56,-0.347L0.56,-0L0.414,-0L0.414,-0.322C0.414,-0.356 0.405,-0.382 0.387,-0.401C0.37,-0.421 0.346,-0.43 0.315,-0.43C0.294,-0.43 0.276,-0.426 0.26,-0.417C0.244,-0.408 0.231,-0.395 0.222,-0.378C0.213,-0.361 0.209,-0.34 0.209,-0.316Z"
   style="fill:#ffffff;fill-rule:nonzero"
   id="path6" />
            </g>
            <g
   transform="matrix(138.994,0,0,138.994,236.629,463.399)"
   id="g7"
   style="fill:#ffffff">
                <path
   d="M0.066,-0L0.066,-0.728L0.553,-0.728L0.553,-0.604L0.215,-0.604L0.215,-0.428L0.527,-0.428L0.527,-0.307L0.215,-0.307L0.215,-0.124L0.554,-0.124L0.554,-0L0.066,-0Z"
   style="fill:#ffffff;fill-rule:nonzero"
   id="path7" />
            </g>
            <g
   transform="matrix(138.994,0,0,138.994,321.057,463.399)"
   id="g8"
   style="fill:#ffffff">
                <path
   d="M0.062,-0L0.062,-0.546L0.198,-0.546L0.206,-0.41L0.195,-0.41C0.203,-0.444 0.216,-0.471 0.232,-0.492C0.249,-0.513 0.268,-0.529 0.29,-0.539C0.312,-0.549 0.336,-0.554 0.36,-0.554C0.399,-0.554 0.431,-0.542 0.455,-0.517C0.479,-0.492 0.497,-0.453 0.508,-0.401L0.491,-0.401C0.499,-0.436 0.513,-0.465 0.531,-0.488C0.55,-0.51 0.571,-0.527 0.596,-0.538C0.622,-0.549 0.648,-0.554 0.676,-0.554C0.709,-0.554 0.739,-0.547 0.765,-0.532C0.792,-0.518 0.812,-0.497 0.827,-0.469C0.842,-0.441 0.85,-0.408 0.85,-0.368L0.85,-0L0.704,-0L0.704,-0.34C0.704,-0.371 0.695,-0.394 0.679,-0.409C0.662,-0.424 0.641,-0.432 0.617,-0.432C0.598,-0.432 0.583,-0.428 0.569,-0.42C0.555,-0.412 0.545,-0.4 0.538,-0.386C0.531,-0.372 0.527,-0.355 0.527,-0.336L0.527,-0L0.385,-0L0.385,-0.344C0.385,-0.371 0.377,-0.392 0.362,-0.408C0.346,-0.424 0.325,-0.432 0.3,-0.432C0.283,-0.432 0.268,-0.428 0.254,-0.42C0.24,-0.412 0.229,-0.401 0.221,-0.386C0.213,-0.37 0.209,-0.352 0.209,-0.33L0.209,-0L0.062,-0Z"
   style="fill:#ffffff;fill-rule:nonzero"
   id="path8" />
            </g>
            <g
   transform="matrix(138.994,0,0,138.994,447.903,463.399)"
   id="g9"
   style="fill:#ffffff">
                <path
   d="M0.368,0.009C0.339,0.009 0.314,0.004 0.293,-0.006C0.273,-0.016 0.256,-0.028 0.243,-0.043C0.23,-0.058 0.22,-0.073 0.214,-0.087L0.206,-0.087L0.206,-0L0.062,-0L0.062,-0.728L0.209,-0.728L0.209,-0.454L0.214,-0.454C0.22,-0.469 0.23,-0.483 0.242,-0.499C0.255,-0.514 0.271,-0.527 0.292,-0.537C0.312,-0.548 0.338,-0.553 0.369,-0.553C0.41,-0.553 0.447,-0.542 0.48,-0.521C0.513,-0.501 0.54,-0.469 0.56,-0.428C0.58,-0.386 0.591,-0.334 0.591,-0.272C0.591,-0.211 0.581,-0.16 0.561,-0.118C0.542,-0.077 0.515,-0.045 0.482,-0.023C0.448,-0.002 0.41,0.009 0.368,0.009ZM0.323,-0.108C0.349,-0.108 0.37,-0.115 0.388,-0.129C0.405,-0.143 0.418,-0.163 0.427,-0.187C0.436,-0.212 0.44,-0.241 0.44,-0.272C0.44,-0.304 0.436,-0.333 0.427,-0.357C0.418,-0.382 0.405,-0.401 0.388,-0.415C0.37,-0.428 0.349,-0.435 0.323,-0.435C0.298,-0.435 0.277,-0.429 0.259,-0.415C0.242,-0.402 0.228,-0.383 0.219,-0.359C0.21,-0.334 0.206,-0.306 0.206,-0.272C0.206,-0.24 0.21,-0.211 0.219,-0.186C0.229,-0.162 0.242,-0.143 0.26,-0.129C0.277,-0.115 0.298,-0.108 0.323,-0.108Z"
   style="fill:#ffffff;fill-rule:nonzero"
   id="path9" />
            </g>
            <g
   transform="matrix(138.994,0,0,138.994,535.521,463.399)"
   id="g10"
   style="fill:#ffffff">
                <path
   d="M0.309,0.011C0.254,0.011 0.206,-0.001 0.165,-0.024C0.125,-0.046 0.094,-0.079 0.072,-0.121C0.051,-0.163 0.04,-0.213 0.04,-0.27C0.04,-0.326 0.05,-0.376 0.072,-0.418C0.093,-0.46 0.124,-0.493 0.163,-0.517C0.203,-0.541 0.249,-0.553 0.302,-0.553C0.338,-0.553 0.371,-0.547 0.402,-0.536C0.433,-0.524 0.46,-0.507 0.483,-0.484C0.507,-0.461 0.525,-0.433 0.538,-0.398C0.551,-0.363 0.558,-0.323 0.558,-0.276L0.558,-0.235L0.1,-0.235L0.1,-0.327L0.487,-0.327L0.418,-0.302C0.418,-0.331 0.414,-0.355 0.405,-0.376C0.396,-0.397 0.384,-0.414 0.367,-0.425C0.349,-0.437 0.328,-0.442 0.303,-0.442C0.278,-0.442 0.256,-0.437 0.239,-0.425C0.221,-0.413 0.207,-0.397 0.198,-0.377C0.189,-0.357 0.184,-0.334 0.184,-0.309L0.184,-0.244C0.184,-0.212 0.19,-0.186 0.2,-0.164C0.211,-0.143 0.226,-0.127 0.245,-0.116C0.264,-0.105 0.286,-0.1 0.312,-0.1C0.329,-0.1 0.344,-0.102 0.358,-0.107C0.372,-0.112 0.384,-0.119 0.394,-0.129C0.404,-0.138 0.412,-0.15 0.417,-0.164L0.55,-0.139C0.541,-0.109 0.526,-0.083 0.504,-0.06C0.482,-0.038 0.455,-0.02 0.422,-0.008C0.389,0.004 0.352,0.011 0.309,0.011Z"
   style="fill:#ffffff;fill-rule:nonzero"
   id="path10" />
            </g>
            <g
   transform="matrix(138.994,0,0,138.994,618.32,463.399)"
   id="g11"
   style="fill:#ffffff">
                <path
   d="M0.262,0.009C0.22,0.009 0.183,-0.002 0.149,-0.023C0.115,-0.045 0.089,-0.077 0.069,-0.118C0.049,-0.16 0.04,-0.211 0.04,-0.272C0.04,-0.334 0.05,-0.386 0.07,-0.428C0.09,-0.469 0.117,-0.501 0.151,-0.521C0.184,-0.542 0.221,-0.553 0.261,-0.553C0.292,-0.553 0.318,-0.548 0.338,-0.537C0.359,-0.527 0.376,-0.514 0.388,-0.499C0.401,-0.483 0.41,-0.469 0.417,-0.454L0.421,-0.454L0.421,-0.728L0.568,-0.728L0.568,-0L0.424,-0L0.424,-0.087L0.417,-0.087C0.41,-0.073 0.4,-0.058 0.387,-0.043C0.374,-0.028 0.358,-0.016 0.337,-0.006C0.317,0.004 0.292,0.009 0.262,0.009ZM0.307,-0.108C0.332,-0.108 0.353,-0.115 0.371,-0.129C0.388,-0.143 0.402,-0.162 0.411,-0.186C0.42,-0.211 0.425,-0.24 0.425,-0.272C0.425,-0.306 0.42,-0.334 0.411,-0.359C0.402,-0.383 0.388,-0.402 0.371,-0.415C0.353,-0.429 0.332,-0.435 0.307,-0.435C0.282,-0.435 0.26,-0.428 0.243,-0.415C0.225,-0.401 0.212,-0.382 0.203,-0.357C0.194,-0.333 0.19,-0.304 0.19,-0.272C0.19,-0.241 0.194,-0.212 0.203,-0.187C0.212,-0.163 0.225,-0.143 0.243,-0.129C0.26,-0.115 0.282,-0.108 0.307,-0.108Z"
   style="fill:#ffffff;fill-rule:nonzero"
   id="path11" />
            </g>
            <g
   transform="matrix(138.994,0,0,138.994,705.938,463.399)"
   id="g12"
   style="fill:#ffffff">
                <path
   d="M0.262,0.009C0.22,0.009 0.183,-0.002 0.149,-0.023C0.115,-0.045 0.089,-0.077 0.069,-0.118C0.049,-0.16 0.04,-0.211 0.04,-0.272C0.04,-0.334 0.05,-0.386 0.07,-0.428C0.09,-0.469 0.117,-0.501 0.151,-0.521C0.184,-0.542 0.221,-0.553 0.261,-0.553C0.292,-0.553 0.318,-0.548 0.338,-0.537C0.359,-0.527 0.376,-0.514 0.388,-0.499C0.401,-0.483 0.41,-0.469 0.417,-0.454L0.421,-0.454L0.421,-0.728L0.568,-0.728L0.568,-0L0.424,-0L0.424,-0.087L0.417,-0.087C0.41,-0.073 0.4,-0.058 0.387,-0.043C0.374,-0.028 0.358,-0.016 0.337,-0.006C0.317,0.004 0.292,0.009 0.262,0.009ZM0.307,-0.108C0.332,-0.108 0.353,-0.115 0.371,-0.129C0.388,-0.143 0.402,-0.162 0.411,-0.186C0.42,-0.211 0.425,-0.24 0.425,-0.272C0.425,-0.306 0.42,-0.334 0.411,-0.359C0.402,-0.383 0.388,-0.402 0.371,-0.415C0.353,-0.429 0.332,-0.435 0.307,-0.435C0.282,-0.435 0.26,-0.428 0.243,-0.415C0.225,-0.401 0.212,-0.382 0.203,-0.357C0.194,-0.333 0.19,-0.304 0.19,-0.272C0.19,-0.241 0.194,-0.212 0.203,-0.187C0.212,-0.163 0.225,-0.143 0.243,-0.129C0.26,-0.115 0.282,-0.108 0.307,-0.108Z"
   style="fill:#ffffff;fill-rule:nonzero"
   id="path12" />
            </g>
            <g
   transform="matrix(138.994,0,0,138.994,793.556,463.399)"
   id="g13"
   style="fill:#ffffff">
                <path
   d="M0.309,0.011C0.254,0.011 0.206,-0.001 0.165,-0.024C0.125,-0.046 0.094,-0.079 0.072,-0.121C0.051,-0.163 0.04,-0.213 0.04,-0.27C0.04,-0.326 0.05,-0.376 0.072,-0.418C0.093,-0.46 0.124,-0.493 0.163,-0.517C0.203,-0.541 0.249,-0.553 0.302,-0.553C0.338,-0.553 0.371,-0.547 0.402,-0.536C0.433,-0.524 0.46,-0.507 0.483,-0.484C0.507,-0.461 0.525,-0.433 0.538,-0.398C0.551,-0.363 0.558,-0.323 0.558,-0.276L0.558,-0.235L0.1,-0.235L0.1,-0.327L0.487,-0.327L0.418,-0.302C0.418,-0.331 0.414,-0.355 0.405,-0.376C0.396,-0.397 0.384,-0.414 0.367,-0.425C0.349,-0.437 0.328,-0.442 0.303,-0.442C0.278,-0.442 0.256,-0.437 0.239,-0.425C0.221,-0.413 0.207,-0.397 0.198,-0.377C0.189,-0.357 0.184,-0.334 0.184,-0.309L0.184,-0.244C0.184,-0.212 0.19,-0.186 0.2,-0.164C0.211,-0.143 0.226,-0.127 0.245,-0.116C0.264,-0.105 0.286,-0.1 0.312,-0.1C0.329,-0.1 0.344,-0.102 0.358,-0.107C0.372,-0.112 0.384,-0.119 0.394,-0.129C0.404,-0.138 0.412,-0.15 0.417,-0.164L0.55,-0.139C0.541,-0.109 0.526,-0.083 0.504,-0.06C0.482,-0.038 0.455,-0.02 0.422,-0.008C0.389,0.004 0.352,0.011 0.309,0.011Z"
   style="fill:#ffffff;fill-rule:nonzero"
   id="path13" />
            </g>
            <g
   transform="matrix(138.994,0,0,138.994,876.355,463.399)"
   id="g14"
   style="fill:#ffffff">
                <path
   d="M0.262,0.009C0.22,0.009 0.183,-0.002 0.149,-0.023C0.115,-0.045 0.089,-0.077 0.069,-0.118C0.049,-0.16 0.04,-0.211 0.04,-0.272C0.04,-0.334 0.05,-0.386 0.07,-0.428C0.09,-0.469 0.117,-0.501 0.151,-0.521C0.184,-0.542 0.221,-0.553 0.261,-0.553C0.292,-0.553 0.318,-0.548 0.338,-0.537C0.359,-0.527 0.376,-0.514 0.388,-0.499C0.401,-0.483 0.41,-0.469 0.417,-0.454L0.421,-0.454L0.421,-0.728L0.568,-0.728L0.568,-0L0.424,-0L0.424,-0.087L0.417,-0.087C0.41,-0.073 0.4,-0.058 0.387,-0.043C0.374,-0.028 0.358,-0.016 0.337,-0.006C0.317,0.004 0.292,0.009 0.262,0.009ZM0.307,-0.108C0.332,-0.108 0.353,-0.115 0.371,-0.129C0.388,-0.143 0.402,-0.162 0.411,-0.186C0.42,-0.211 0.425,-0.24 0.425,-0.272C0.425,-0.306 0.42,-0.334 0.411,-0.359C0.402,-0.383 0.388,-0.402 0.371,-0.415C0.353,-0.429 0.332,-0.435 0.307,-0.435C0.282,-0.435 0.26,-0.428 0.243,-0.415C0.225,-0.401 0.212,-0.382 0.203,-0.357C0.194,-0.333 0.19,-0.304 0.19,-0.272C0.19,-0.241 0.194,-0.212 0.203,-0.187C0.212,-0.163 0.225,-0.143 0.243,-0.129C0.26,-0.115 0.282,-0.108 0.307,-0.108Z"
   style="fill:#ffffff;fill-rule:nonzero"
   id="path14" />
            </g>
        </g>
        <g
   transform="matrix(1.97801,0,0,1.97801,3664.48,1085.21)"
   id="g18">
            <g
   transform="matrix(1,0,0,1,-303.582,-239.83)"
   id="g17">
                <clipPath
   id="_clip1">
                    <rect
   x="0"
   y="0"
   width="607.165"
   height="479.66"
   id="rect15" />
                </clipPath>
                <g
   clip-path="url(#_clip1)"
   id="g16">
                    <g
   id="Layer-1"
   serif:id="Layer 1"
   transform="matrix(5.66929,0,0,5.66929,-282.378,-519.753)">
                        <path
   id="path302"
   d="M50.428,176.249C50.249,176.201 50.141,176.135 50.017,175.997C49.866,175.831 49.809,175.679 49.808,175.448C49.808,175.109 49.983,174.834 50.294,174.686L50.439,174.617L64.791,174.603L64.791,154.481C64.791,132.964 64.784,134.178 64.912,133.853C64.938,133.788 65.366,132.852 65.864,131.773L66.768,129.812L66.768,106.94L66.645,106.789C66.437,106.535 66.166,106.102 65.989,105.741C64.738,103.193 65.73,100.227 68.371,98.619C69.048,98.207 69.861,97.883 70.648,97.711L70.925,97.65L70.863,97.518C70.55,96.843 70.783,96.002 71.413,95.537L71.537,95.445L71.553,92.319L71.646,92.138C71.96,91.521 72.822,91.526 73.127,92.147L73.214,92.324L73.23,95.445L73.354,95.537C73.984,96.003 74.217,96.843 73.903,97.519L73.841,97.652L74.062,97.698C75.516,97.997 76.966,98.809 77.866,99.828C79.077,101.199 79.545,102.826 79.209,104.498C79.056,105.257 78.637,106.145 78.141,106.762L77.999,106.938L77.999,129.812L78.679,131.286L79.36,132.76L80.566,132.76L81.021,131.771C81.271,131.227 81.523,130.682 81.581,130.559C81.639,130.435 81.74,130.217 81.806,130.074L81.926,129.813L81.926,106.941L81.794,106.777C81.381,106.265 81.027,105.59 80.831,104.943C80.046,102.354 81.409,99.605 84.127,98.296C84.688,98.026 85.23,97.837 85.806,97.711L86.083,97.65L86.022,97.518C85.708,96.843 85.941,96.003 86.571,95.537L86.695,95.445L86.711,92.319L86.804,92.139C87.118,91.522 87.98,91.527 88.285,92.148L88.372,92.324L88.388,95.446L88.512,95.538C89.142,96.003 89.375,96.843 89.062,97.518L89,97.651L89.277,97.711C92.316,98.376 94.475,100.765 94.475,103.462C94.475,104.614 94.036,105.847 93.299,106.762L93.157,106.938L93.157,129.813L93.837,131.286L94.518,132.76L131.391,132.786L131.575,132.848C132.099,133.024 132.51,133.358 132.744,133.798C132.808,133.917 134.537,138.306 137.564,146.032C137.629,146.198 137.746,146.495 137.822,146.691C138.642,148.777 138.868,149.37 138.902,149.514C138.931,149.638 138.942,149.841 138.942,150.28L138.943,150.878L139.121,150.895C139.767,150.96 140.237,151.214 140.443,151.611C140.494,151.707 141.724,154.967 141.849,155.334L141.908,155.508L141.922,174.605L156.274,174.619L156.419,174.687C156.729,174.835 156.905,175.11 156.906,175.449C156.906,175.613 156.893,175.673 156.833,175.797C156.745,175.977 156.547,176.163 156.373,176.231C156.252,176.278 154.668,176.279 103.411,176.284C57.202,176.288 50.557,176.284 50.432,176.251L50.428,176.249ZM68.244,174.604L68.244,168.041L66.452,168.041L66.452,174.604L68.244,174.604ZM74.834,174.604L74.834,168.041L69.931,168.041L69.931,174.604L74.834,174.604ZM78.293,172.133C78.297,170.774 78.297,169.297 78.293,168.851L78.286,168.041L76.521,168.041L76.521,174.604L78.287,174.604L78.294,172.133L78.293,172.133ZM81.582,172.133C81.581,162.681 81.588,159.855 81.609,159.644C81.68,158.942 82.155,158.149 83.057,157.224C83.375,156.898 83.83,156.479 84.043,156.316C84.148,156.237 84.341,156.237 84.445,156.316C84.658,156.479 85.114,156.898 85.431,157.224C86.137,157.947 86.568,158.572 86.791,159.197L86.867,159.408L86.881,174.604L88.515,174.604L88.515,167.12C88.515,159.002 88.506,159.497 88.655,159.102C88.881,158.5 89.344,157.854 90.07,157.127C90.426,156.77 90.902,156.345 91.011,156.288C91.042,156.272 91.111,156.258 91.164,156.258C91.292,156.258 91.332,156.282 91.638,156.544C92.618,157.383 93.392,158.356 93.673,159.102C93.822,159.497 93.813,159.002 93.813,167.12L93.813,174.604L95.421,174.604L95.421,167.243C95.422,162.761 95.432,159.789 95.447,159.644C95.504,159.106 95.792,158.522 96.339,157.84C96.591,157.525 97.167,156.933 97.53,156.616C97.936,156.261 97.94,156.258 98.083,156.258C98.226,156.258 98.23,156.261 98.637,156.616C98.999,156.933 99.576,157.525 99.827,157.84C100.211,158.318 100.477,158.768 100.63,159.197L100.706,159.408L100.72,174.604L102.354,174.604L102.354,167.12C102.354,159.002 102.345,159.497 102.494,159.102C102.72,158.5 103.183,157.854 103.909,157.127C104.265,156.769 104.741,156.345 104.849,156.288C104.923,156.25 105.082,156.25 105.156,156.288C105.264,156.345 105.74,156.769 106.097,157.127C106.822,157.854 107.285,158.5 107.512,159.102C107.66,159.497 107.652,159.002 107.652,167.12L107.652,174.604L109.26,174.604L109.26,167.243C109.26,162.761 109.27,159.789 109.286,159.644C109.342,159.106 109.631,158.522 110.178,157.84C110.43,157.525 111.006,156.933 111.368,156.616C111.775,156.261 111.779,156.258 111.922,156.258C112.065,156.258 112.069,156.261 112.475,156.616C112.838,156.933 113.414,157.525 113.666,157.84C114.05,158.318 114.316,158.768 114.469,159.197L114.545,159.408L114.559,174.604L116.193,174.604L116.193,167.12C116.193,159.002 116.183,159.497 116.333,159.102C116.559,158.5 117.022,157.854 117.747,157.127C118.104,156.769 118.58,156.345 118.688,156.288C118.762,156.25 118.921,156.25 118.995,156.288C119.103,156.345 119.579,156.769 119.936,157.127C120.661,157.854 121.124,158.5 121.35,159.102C121.499,159.497 121.491,159.002 121.491,167.12L121.491,174.604L123.099,174.604L123.101,168.64C123.102,165.36 123.101,162.054 123.1,161.293C123.099,160.526 123.109,159.797 123.124,159.657C123.182,159.106 123.465,158.528 124.017,157.84C124.269,157.525 124.845,156.933 125.208,156.616C125.614,156.261 125.619,156.258 125.761,156.258C125.904,156.258 125.908,156.261 126.315,156.616C126.677,156.933 127.254,157.525 127.505,157.84C127.889,158.318 128.155,158.768 128.308,159.197L128.384,159.408L128.398,174.604L130.032,174.604L130.032,155.52L79.975,155.52L79.975,174.604L81.583,174.604L81.583,172.133L81.582,172.133ZM85.22,167.173C85.22,159.779 85.219,159.741 85.166,159.618C85.053,159.353 84.622,158.772 84.339,158.5L84.244,158.409L84.149,158.5C83.853,158.785 83.413,159.385 83.318,159.636C83.271,159.76 83.269,160.018 83.269,167.184L83.269,174.604L85.219,174.604L85.22,167.173ZM92.125,167.151L92.125,159.698L92.063,159.566C91.951,159.327 91.647,158.916 91.304,158.541L91.161,158.385L90.942,158.633C90.639,158.976 90.406,159.293 90.288,159.524L90.188,159.72L90.174,174.604L92.125,174.604L92.125,167.151L92.125,167.151ZM99.058,167.173C99.058,159.779 99.058,159.741 99.005,159.618C98.891,159.353 98.461,158.772 98.177,158.5L98.083,158.409L97.988,158.5C97.691,158.785 97.252,159.385 97.156,159.636C97.109,159.76 97.107,160.018 97.107,167.184L97.107,174.604L99.058,174.604L99.058,167.173ZM105.964,172.963C105.964,172.061 105.965,168.707 105.965,165.51L105.965,159.698L105.872,159.514C105.76,159.293 105.523,158.972 105.224,158.633L105.004,158.385L104.862,158.541C104.513,158.923 104.215,159.326 104.095,159.58L104.027,159.724L104.013,174.604L105.964,174.604L105.964,172.963L105.964,172.963ZM112.897,167.173C112.897,159.779 112.896,159.741 112.843,159.618C112.73,159.353 112.299,158.772 112.016,158.5L111.921,158.409L111.826,158.5C111.53,158.785 111.09,159.385 110.995,159.636C110.948,159.76 110.946,160.018 110.946,167.184L110.946,174.604L112.896,174.604L112.897,167.173ZM119.803,172.107C119.803,170.733 119.803,167.381 119.804,164.657L119.804,159.706L119.711,159.517C119.6,159.296 119.368,158.978 119.062,158.633L118.843,158.385L118.7,158.541C118.351,158.923 118.054,159.326 117.934,159.58L117.865,159.724L117.851,174.604L119.802,174.604L119.802,172.107L119.803,172.107ZM126.735,167.173C126.735,159.779 126.735,159.741 126.682,159.618C126.568,159.353 126.138,158.772 125.854,158.5L125.76,158.409L125.665,158.5C125.368,158.785 124.929,159.385 124.833,159.636C124.786,159.76 124.784,160.018 124.784,167.184L124.784,174.604L126.735,174.604L126.735,167.173ZM133.325,167.12C133.325,159.002 133.316,159.497 133.465,159.102C133.691,158.5 134.154,157.854 134.88,157.127C135.236,156.769 135.712,156.345 135.821,156.288C135.894,156.25 136.053,156.25 136.127,156.288C136.235,156.345 136.711,156.769 137.068,157.127C137.793,157.854 138.256,158.5 138.483,159.102C138.632,159.497 138.623,159.002 138.623,167.12L138.623,174.604L140.231,174.604L140.231,165.167C140.231,156.319 140.228,155.725 140.186,155.661C140.089,155.513 140.31,155.52 135.83,155.52L131.691,155.52L131.691,174.604L133.325,174.604L133.325,167.12ZM136.936,172.752C136.936,171.734 136.937,168.38 136.937,165.299L136.937,159.698L136.844,159.514C136.732,159.293 136.495,158.972 136.196,158.633L135.976,158.385L135.834,158.541C135.485,158.923 135.187,159.326 135.067,159.58L134.999,159.724L134.985,174.604L136.936,174.604L136.936,172.752ZM68.244,166.38L68.244,159.817L66.452,159.817L66.452,166.38L68.244,166.38ZM74.84,164.515C74.844,163.49 74.844,162.013 74.84,161.234L74.833,159.817L69.932,159.817L69.932,166.38L74.832,166.38L74.84,164.515L74.84,164.515ZM71.727,164.543C71.564,164.462 71.54,164.363 71.54,163.744C71.539,163.149 71.554,163.08 71.706,162.968C71.776,162.917 71.815,162.914 72.383,162.914C72.95,162.914 72.989,162.917 73.059,162.968C73.211,163.08 73.226,163.149 73.226,163.744C73.225,164.596 73.234,164.588 72.379,164.587C71.908,164.587 71.801,164.579 71.727,164.543L71.727,164.543ZM78.287,166.38L78.287,159.817L76.521,159.817L76.521,166.38L78.287,166.38ZM68.244,158.13L68.244,151.566L66.452,151.566L66.452,158.13L68.244,158.13ZM74.834,158.13L74.834,151.566L69.931,151.566L69.931,158.13L74.834,158.13ZM71.708,156.129C71.557,156.037 71.539,155.956 71.539,155.351C71.539,154.741 71.556,154.661 71.702,154.572C71.783,154.523 71.834,154.519 72.383,154.519C73.245,154.519 73.226,154.501 73.226,155.351C73.226,156.195 73.242,156.179 72.383,156.179C71.849,156.179 71.781,156.174 71.708,156.129L71.708,156.129ZM78.293,155.988C78.297,154.81 78.297,153.333 78.293,152.706L78.286,151.566L76.521,151.566L76.521,158.13L78.286,158.13L78.293,155.988ZM130.03,153.86L130.03,152.568L124.686,152.568C117.738,152.567 88.295,152.567 83.605,152.568L79.974,152.568L79.974,153.86L130.03,153.86ZM139.272,153.214L139.031,152.569L137.094,152.566C136.029,152.564 135.05,152.562 134.919,152.562C134.789,152.561 134.009,152.562 133.186,152.565L131.69,152.569L131.69,153.86L139.513,153.86L139.272,153.215L139.272,153.214ZM130.03,150.881L130.03,149.589L79.974,149.589L79.974,150.881L130.03,150.881ZM137.279,150.881L137.279,149.589L131.69,149.589L131.69,150.881L137.279,150.881ZM68.244,149.906L68.244,143.342L66.452,143.342L66.452,149.906L68.244,149.906ZM74.84,148.37C74.844,147.526 74.844,146.049 74.84,145.089L74.832,143.342L69.931,143.342L69.931,149.906L74.831,149.906L74.839,148.37L74.84,148.37ZM71.685,147.713C71.553,147.61 71.539,147.532 71.54,146.935C71.542,146.096 71.528,146.11 72.403,146.11L72.991,146.11L73.213,146.317L73.221,146.879C73.23,147.503 73.215,147.598 73.091,147.703L73.011,147.771L72.384,147.771C71.78,147.771 71.754,147.769 71.684,147.713L71.685,147.713ZM78.287,149.906L78.287,143.342L76.521,143.342L76.521,149.906L78.287,149.906ZM130.03,147.929L130.03,134.433L79.974,134.433L79.974,147.929L130.03,147.929ZM83.588,146.75C83.425,146.67 83.402,146.571 83.401,145.952C83.401,145.357 83.416,145.287 83.567,145.176C83.638,145.125 83.676,145.122 84.244,145.122C84.812,145.122 84.851,145.125 84.921,145.176C85.073,145.287 85.088,145.357 85.087,145.952C85.086,146.804 85.095,146.796 84.24,146.795C83.769,146.794 83.663,146.787 83.588,146.75L83.588,146.75ZM90.492,146.737C90.34,146.635 90.334,146.604 90.334,145.957C90.333,145.093 90.305,145.121 91.163,145.121C92.029,145.121 92,145.091 91.989,145.992L91.981,146.61L91.808,146.782L91.196,146.79C90.59,146.798 90.582,146.798 90.492,146.737L90.492,146.737ZM97.463,146.77C97.356,146.727 97.273,146.614 97.256,146.488C97.247,146.421 97.239,146.151 97.239,145.889C97.239,145.363 97.258,145.285 97.406,145.176C97.476,145.125 97.515,145.121 98.083,145.121C98.651,145.121 98.689,145.124 98.76,145.176C98.911,145.287 98.926,145.357 98.926,145.952C98.925,146.804 98.933,146.796 98.079,146.794C97.769,146.793 97.492,146.782 97.463,146.77L97.463,146.77ZM104.338,146.744C104.182,146.649 104.172,146.598 104.172,145.952C104.172,145.094 104.144,145.121 105.002,145.121C105.868,145.121 105.839,145.091 105.827,145.99C105.816,146.829 105.851,146.795 104.983,146.795C104.473,146.795 104.414,146.79 104.338,146.744L104.338,146.744ZM111.265,146.751C111.102,146.67 111.079,146.571 111.078,145.952C111.078,145.358 111.093,145.288 111.244,145.177C111.315,145.125 111.354,145.122 111.918,145.122C112.779,145.122 112.747,145.091 112.751,145.945C112.756,146.818 112.777,146.796 111.922,146.795C111.446,146.795 111.34,146.787 111.265,146.751L111.265,146.751ZM118.208,146.759C118.164,146.739 118.105,146.697 118.076,146.665C118.027,146.61 118.023,146.562 118.015,145.99C118.004,145.091 117.975,145.122 118.84,145.122C119.699,145.122 119.671,145.093 119.67,145.957C119.67,146.603 119.663,146.635 119.515,146.735C119.429,146.793 119.406,146.796 118.856,146.795C118.443,146.794 118.265,146.784 118.208,146.759L118.208,146.759ZM125.104,146.751C124.941,146.67 124.917,146.571 124.917,145.952C124.916,145.358 124.931,145.288 125.083,145.177C125.153,145.125 125.192,145.122 125.76,145.122C126.327,145.122 126.366,145.125 126.437,145.177C126.588,145.288 126.603,145.358 126.603,145.952C126.602,146.805 126.611,146.796 125.756,146.795C125.285,146.795 125.178,146.787 125.104,146.751L125.104,146.751ZM83.588,142.138C83.425,142.057 83.402,141.958 83.401,141.339C83.401,140.745 83.416,140.675 83.567,140.564C83.638,140.512 83.676,140.509 84.244,140.509C84.812,140.509 84.851,140.512 84.921,140.564C85.073,140.675 85.088,140.745 85.087,141.339C85.086,142.192 85.095,142.183 84.24,142.182C83.769,142.182 83.663,142.174 83.588,142.138L83.588,142.138ZM90.499,142.131C90.344,142.036 90.333,141.985 90.333,141.339C90.333,140.481 90.306,140.509 91.163,140.509C92.022,140.509 91.994,140.48 91.994,141.344C91.993,142.205 92.016,142.182 91.158,142.182C90.635,142.182 90.576,142.177 90.499,142.131L90.499,142.131ZM97.427,142.138C97.264,142.057 97.24,141.958 97.24,141.339C97.239,140.745 97.254,140.675 97.406,140.564C97.476,140.512 97.515,140.509 98.083,140.509C98.65,140.509 98.689,140.512 98.76,140.564C98.911,140.675 98.926,140.745 98.926,141.339C98.925,142.192 98.934,142.183 98.079,142.182C97.608,142.182 97.501,142.174 97.427,142.138L97.427,142.138ZM104.338,142.131C104.182,142.036 104.172,141.985 104.172,141.339C104.172,140.481 104.144,140.509 105.002,140.509C105.861,140.509 105.832,140.48 105.832,141.344C105.832,142.205 105.854,142.182 104.997,142.182C104.473,142.182 104.415,142.177 104.338,142.131L104.338,142.131ZM111.265,142.138C111.102,142.057 111.079,141.958 111.078,141.339C111.078,140.745 111.093,140.675 111.244,140.564C111.315,140.512 111.353,140.509 111.921,140.509C112.489,140.509 112.528,140.512 112.598,140.564C112.75,140.675 112.765,140.745 112.764,141.339C112.763,142.192 112.772,142.183 111.917,142.182C111.446,142.182 111.34,142.174 111.265,142.138L111.265,142.138ZM118.176,142.131C118.021,142.036 118.01,141.985 118.01,141.339C118.01,140.481 117.983,140.509 118.84,140.509C119.699,140.509 119.671,140.48 119.671,141.344C119.67,142.205 119.693,142.182 118.835,142.182C118.312,142.182 118.253,142.177 118.176,142.131L118.176,142.131ZM125.104,142.138C124.941,142.057 124.917,141.958 124.917,141.339C124.916,140.745 124.931,140.675 125.083,140.564C125.153,140.512 125.192,140.509 125.76,140.509C126.327,140.509 126.366,140.512 126.437,140.564C126.588,140.675 126.603,140.745 126.603,141.339C126.602,142.192 126.611,142.183 125.756,142.182C125.285,142.182 125.178,142.174 125.104,142.138L125.104,142.138ZM83.588,137.525C83.425,137.445 83.402,137.345 83.401,136.727C83.401,136.132 83.416,136.062 83.567,135.951C83.638,135.899 83.676,135.896 84.244,135.896C84.812,135.896 84.851,135.899 84.921,135.951C85.073,136.062 85.088,136.132 85.087,136.727C85.086,137.579 85.095,137.57 84.24,137.569C83.769,137.569 83.663,137.561 83.588,137.525L83.588,137.525ZM90.499,137.518C90.344,137.423 90.333,137.372 90.333,136.726C90.333,135.868 90.306,135.896 91.163,135.896C92.022,135.896 91.994,135.867 91.994,136.731C91.993,137.592 92.016,137.57 91.158,137.569C90.635,137.569 90.576,137.564 90.499,137.518L90.499,137.518ZM97.427,137.525C97.264,137.445 97.24,137.345 97.24,136.727C97.239,136.132 97.254,136.062 97.406,135.951C97.476,135.899 97.515,135.896 98.083,135.896C98.65,135.896 98.689,135.899 98.76,135.951C98.911,136.062 98.926,136.132 98.926,136.727C98.925,137.579 98.934,137.57 98.079,137.569C97.608,137.569 97.501,137.561 97.427,137.525L97.427,137.525ZM104.338,137.518C104.182,137.423 104.172,137.372 104.172,136.726C104.172,135.868 104.144,135.896 105.002,135.896C105.861,135.896 105.832,135.867 105.832,136.731C105.832,137.592 105.854,137.57 104.997,137.569C104.473,137.569 104.415,137.564 104.338,137.518L104.338,137.518ZM111.265,137.525C111.102,137.445 111.079,137.345 111.078,136.727C111.078,136.132 111.093,136.062 111.244,135.951C111.315,135.899 111.353,135.896 111.921,135.896C112.489,135.896 112.528,135.899 112.598,135.951C112.75,136.062 112.765,136.132 112.764,136.727C112.763,137.579 112.772,137.57 111.917,137.569C111.446,137.569 111.34,137.561 111.265,137.525L111.265,137.525ZM118.176,137.518C118.021,137.423 118.01,137.372 118.01,136.726C118.01,135.868 117.983,135.896 118.84,135.896C119.699,135.896 119.671,135.867 119.671,136.731C119.67,137.59 119.691,137.57 118.822,137.569C118.312,137.569 118.253,137.564 118.176,137.518L118.176,137.518ZM125.104,137.525C124.941,137.445 124.917,137.345 124.917,136.727C124.916,136.132 124.931,136.062 125.083,135.951C125.153,135.899 125.192,135.896 125.76,135.896C126.327,135.896 126.366,135.899 126.437,135.951C126.588,136.062 126.603,136.132 126.603,136.727C126.602,137.579 126.611,137.57 125.756,137.569C125.285,137.569 125.178,137.561 125.104,137.525L125.104,137.525ZM136.505,147.909C136.493,147.889 135.968,146.56 135.764,146.031C135.711,145.894 135.657,145.757 135.644,145.728C135.631,145.699 134.747,143.445 133.679,140.72C132.611,137.994 131.727,135.741 131.715,135.712C131.704,135.683 131.693,138.42 131.692,141.794L131.69,147.929L134.104,147.929C135.431,147.929 136.511,147.92 136.504,147.909L136.505,147.909ZM68.244,141.656L68.244,134.433L66.452,134.433L66.452,141.656L68.244,141.656ZM74.834,141.656L74.834,134.433L69.931,134.433L69.931,141.656L74.834,141.656ZM71.752,139.343C71.702,139.317 71.637,139.263 71.607,139.222C71.555,139.152 71.552,139.113 71.552,138.545C71.552,137.978 71.555,137.939 71.607,137.869C71.718,137.717 71.788,137.702 72.383,137.702C72.977,137.702 73.047,137.717 73.158,137.869C73.21,137.939 73.213,137.978 73.213,138.545C73.213,139.113 73.21,139.152 73.158,139.222C73.047,139.374 72.977,139.389 72.383,139.389C71.92,139.389 71.829,139.382 71.752,139.343L71.752,139.343ZM78.293,139.83C78.297,138.826 78.297,137.201 78.294,136.219L78.287,134.433L76.521,134.433L76.521,141.656L78.286,141.656L78.293,139.83L78.293,139.83ZM77.434,132.582C77.386,132.477 77.252,132.186 77.138,131.936L76.93,131.481L67.836,131.481L67.627,131.936C67.513,132.186 67.38,132.476 67.332,132.581L67.244,132.772L77.521,132.772L77.434,132.582ZM92.59,132.582C92.542,132.476 92.409,132.186 92.294,131.936L92.086,131.481L82.992,131.481L82.784,131.936C82.669,132.186 82.536,132.476 82.488,132.581L82.4,132.772L92.678,132.772L92.59,132.582ZM76.31,129.821L76.31,121.939L68.429,121.939L68.429,129.821L76.31,129.821ZM72.132,127.839C71.531,127.791 70.932,127.506 70.493,127.057C70.003,126.557 69.745,125.919 69.745,125.209C69.744,123.99 70.509,122.994 71.714,122.645C71.895,122.593 71.98,122.585 72.383,122.585C72.911,122.585 73.059,122.614 73.45,122.79C73.87,122.98 74.157,123.198 74.429,123.534C74.831,124.03 75.02,124.566 75.021,125.207C75.021,125.932 74.759,126.567 74.251,127.076C73.685,127.641 72.956,127.904 72.132,127.839L72.132,127.839ZM72.793,126.089C73.59,125.712 73.515,124.55 72.676,124.285C72.188,124.131 71.701,124.356 71.479,124.839C71.436,124.932 71.424,125.011 71.423,125.208C71.422,125.431 71.43,125.475 71.499,125.616C71.626,125.878 71.88,126.088 72.156,126.16C72.318,126.202 72.626,126.168 72.793,126.089L72.793,126.089ZM91.467,129.821L91.467,121.939L83.585,121.939L83.585,129.821L91.467,129.821ZM69.721,118.493C69.721,117.525 69.733,116.625 69.747,116.493C69.773,116.243 69.879,115.899 70.011,115.639C70.326,115.015 71.006,114.199 71.785,113.509C72.164,113.172 72.259,113.109 72.383,113.109C72.506,113.109 72.602,113.173 72.976,113.505C73.438,113.916 73.945,114.448 74.219,114.81C74.568,115.27 74.761,115.606 74.917,116.022L75.005,116.259L75.019,120.252L76.309,120.252L76.309,111.712L68.428,111.712L68.428,120.252L69.72,120.252L69.72,118.493L69.721,118.493ZM73.352,118.399L73.345,116.546L73.257,116.373C73.208,116.277 73.082,116.084 72.977,115.943C72.789,115.693 72.409,115.248 72.383,115.248C72.356,115.248 71.976,115.693 71.789,115.943C71.683,116.084 71.557,116.277 71.509,116.373L71.421,116.546L71.407,120.252L73.359,120.252L73.352,118.399ZM84.877,118.493C84.878,116.663 84.891,116.373 84.984,116.087C85.12,115.669 85.419,115.159 85.817,114.665C86.167,114.23 87.031,113.386 87.339,113.178C87.404,113.134 87.477,113.109 87.539,113.109C87.662,113.109 87.758,113.173 88.132,113.505C89.132,114.391 89.811,115.283 90.1,116.088L90.162,116.259L90.178,120.252L91.468,120.252L91.471,117.742C91.472,116.361 91.473,115.059 91.471,114.849C91.47,114.638 91.469,113.847 91.468,113.089L91.468,111.712L83.586,111.712L83.586,120.252L84.878,120.252L84.878,118.493L84.877,118.493ZM88.508,118.399L88.501,116.546L88.413,116.372C88.301,116.152 87.965,115.703 87.717,115.443L87.526,115.243L87.279,115.53C86.98,115.879 86.75,116.196 86.651,116.398L86.577,116.549L86.563,120.252L88.516,120.252L88.508,118.399ZM69.562,110.051L69.562,108.101L68.429,108.101L68.429,110.051L69.562,110.051ZM73.516,110.051L73.516,108.101L71.249,108.101L71.249,110.051L73.516,110.051ZM76.31,110.051L76.31,108.101L75.203,108.101L75.203,110.051L76.31,110.051ZM84.719,110.051L84.719,108.101L83.585,108.101L83.585,110.051L84.719,110.051ZM88.673,110.051L88.673,108.101L86.406,108.101L86.406,110.051L88.673,110.051ZM91.467,110.051L91.467,108.101L90.36,108.101L90.36,110.051L91.467,110.051ZM76.495,106.104C77.044,105.541 77.378,104.957 77.552,104.252C77.607,104.03 77.614,103.939 77.614,103.461C77.614,102.959 77.609,102.901 77.543,102.637C77.237,101.429 76.335,100.402 75.038,99.785C73.943,99.265 72.743,99.086 71.487,99.256C69.616,99.509 68.002,100.638 67.39,102.123C67.26,102.436 67.162,102.861 67.141,103.196C67.073,104.306 67.441,105.254 68.271,106.104L68.574,106.414L76.192,106.414L76.495,106.104ZM91.625,106.13C92.195,105.551 92.519,104.992 92.701,104.278C92.766,104.023 92.771,103.96 92.771,103.461C92.771,102.96 92.766,102.9 92.699,102.637C92.529,101.966 92.208,101.398 91.693,100.859C90.851,99.976 89.727,99.435 88.33,99.24C87.952,99.187 87.073,99.194 86.656,99.253C85.606,99.402 84.657,99.797 83.861,100.417C83.443,100.743 82.987,101.276 82.722,101.748C82.494,102.155 82.327,102.724 82.298,103.196C82.229,104.303 82.592,105.24 83.424,106.102L83.723,106.413L91.347,106.413L91.625,106.13Z"
   style="fill:rgb(249,115,22);fill-rule:nonzero;" />
                    </g>
                </g>
            </g>
        </g>
    </g>
</svg>
